<svg width="20" height="20" viewBox="0 0 20 20" fill="none" xmlns="http://www.w3.org/2000/svg">
<g clip-path="url(#clip0_316_79)">
<path d="M10 12.5C11.3807 12.5 12.5 11.3807 12.5 10C12.5 8.61929 11.3807 7.5 10 7.5C8.61929 7.5 7.5 8.61929 7.5 10C7.5 11.3807 8.61929 12.5 10 12.5Z" stroke="#9BA2AF" stroke-width="1.5" stroke-linecap="round" stroke-linejoin="round"/>
<path d="M16.1668 12.4997C16.0559 12.751 16.0228 13.0298 16.0718 13.3002C16.1208 13.5705 16.2497 13.8199 16.4418 14.0163L16.4918 14.0663C16.6468 14.2211 16.7697 14.4049 16.8536 14.6073C16.9375 14.8096 16.9806 15.0265 16.9806 15.2455C16.9806 15.4645 16.9375 15.6814 16.8536 15.8837C16.7697 16.0861 16.6468 16.2699 16.4918 16.4247C16.337 16.5796 16.1532 16.7026 15.9509 16.7864C15.7486 16.8703 15.5317 16.9135 15.3127 16.9135C15.0936 16.9135 14.8768 16.8703 14.6744 16.7864C14.4721 16.7026 14.2883 16.5796 14.1335 16.4247L14.0835 16.3747C13.8871 16.1826 13.6376 16.0537 13.3673 16.0047C13.097 15.9557 12.8182 15.9887 12.5668 16.0997C12.3204 16.2053 12.1101 16.3807 11.9621 16.6043C11.814 16.8279 11.7346 17.0899 11.7335 17.358V17.4997C11.7335 17.9417 11.5579 18.3656 11.2453 18.6782C10.9328 18.9907 10.5089 19.1663 10.0668 19.1663C9.6248 19.1663 9.20088 18.9907 8.88832 18.6782C8.57576 18.3656 8.40016 17.9417 8.40016 17.4997V17.4247C8.39371 17.1488 8.30443 16.8813 8.14392 16.6569C7.98342 16.4325 7.75911 16.2616 7.50016 16.1663C7.24882 16.0554 6.97 16.0223 6.69967 16.0713C6.42934 16.1204 6.1799 16.2492 5.9835 16.4413L5.9335 16.4913C5.77871 16.6463 5.59489 16.7692 5.39256 16.8531C5.19023 16.937 4.97336 16.9802 4.75433 16.9802C4.5353 16.9802 4.31843 16.937 4.1161 16.8531C3.91377 16.7692 3.72995 16.6463 3.57516 16.4913C3.4202 16.3366 3.29727 16.1527 3.2134 15.9504C3.12952 15.7481 3.08635 15.5312 3.08635 15.3122C3.08635 15.0931 3.12952 14.8763 3.2134 14.6739C3.29727 14.4716 3.4202 14.2878 3.57516 14.133L3.62516 14.083C3.81728 13.8866 3.94615 13.6372 3.99517 13.3668C4.04418 13.0965 4.01109 12.8177 3.90016 12.5663C3.79453 12.3199 3.61913 12.1097 3.39555 11.9616C3.17198 11.8135 2.90999 11.7341 2.64183 11.733H2.50016C2.05814 11.733 1.63421 11.5574 1.32165 11.2449C1.00909 10.9323 0.833496 10.5084 0.833496 10.0663C0.833496 9.62431 1.00909 9.20039 1.32165 8.88783C1.63421 8.57527 2.05814 8.39967 2.50016 8.39967H2.57516C2.85099 8.39322 3.1185 8.30394 3.34291 8.14343C3.56732 7.98293 3.73826 7.75862 3.8335 7.49967C3.94443 7.24833 3.97752 6.96951 3.9285 6.69918C3.87948 6.42886 3.75061 6.17941 3.5585 5.98301L3.5085 5.93301C3.35354 5.77822 3.2306 5.59441 3.14673 5.39208C3.06286 5.18974 3.01969 4.97287 3.01969 4.75384C3.01969 4.53482 3.06286 4.31794 3.14673 4.11561C3.2306 3.91328 3.35354 3.72946 3.5085 3.57467C3.66328 3.41971 3.8471 3.29678 4.04943 3.21291C4.25176 3.12903 4.46864 3.08586 4.68766 3.08586C4.90669 3.08586 5.12357 3.12903 5.3259 3.21291C5.52823 3.29678 5.71204 3.41971 5.86683 3.57467L5.91683 3.62467C6.11323 3.81679 6.36268 3.94566 6.63301 3.99468C6.90333 4.04369 7.18215 4.0106 7.4335 3.89967H7.50016C7.74664 3.79404 7.95684 3.61864 8.10491 3.39506C8.25297 3.17149 8.33243 2.9095 8.3335 2.64134V2.49967C8.3335 2.05765 8.50909 1.63372 8.82165 1.32116C9.13421 1.0086 9.55814 0.833008 10.0002 0.833008C10.4422 0.833008 10.8661 1.0086 11.1787 1.32116C11.4912 1.63372 11.6668 2.05765 11.6668 2.49967V2.57467C11.6679 2.84283 11.7474 3.10482 11.8954 3.3284C12.0435 3.55197 12.2537 3.72737 12.5002 3.83301C12.7515 3.94394 13.0303 3.97703 13.3007 3.92801C13.571 3.879 13.8204 3.75012 14.0168 3.55801L14.0668 3.50801C14.2216 3.35305 14.4054 3.23012 14.6078 3.14624C14.8101 3.06237 15.027 3.0192 15.246 3.0192C15.465 3.0192 15.6819 3.06237 15.8842 3.14624C16.0866 3.23012 16.2704 3.35305 16.4252 3.50801C16.5801 3.6628 16.7031 3.84661 16.7869 4.04894C16.8708 4.25127 16.914 4.46815 16.914 4.68717C16.914 4.9062 16.8708 5.12308 16.7869 5.32541C16.7031 5.52774 16.5801 5.71155 16.4252 5.86634L16.3752 5.91634C16.183 6.11274 16.0542 6.36219 16.0052 6.63252C15.9561 6.90285 15.9892 7.18166 16.1002 7.43301V7.49967C16.2058 7.74615 16.3812 7.95636 16.6048 8.10442C16.8284 8.25248 17.0903 8.33194 17.3585 8.33301H17.5002C17.9422 8.33301 18.3661 8.5086 18.6787 8.82116C18.9912 9.13372 19.1668 9.55765 19.1668 9.99967C19.1668 10.4417 18.9912 10.8656 18.6787 11.1782C18.3661 11.4907 17.9422 11.6663 17.5002 11.6663H17.4252C17.157 11.6674 16.895 11.7469 16.6714 11.8949C16.4479 12.043 16.2725 12.2532 16.1668 12.4997V12.4997Z" stroke="#9BA2AF" stroke-width="1.5" stroke-linecap="round" stroke-linejoin="round"/>
</g>
<defs>
<clipPath id="clip0_316_79">
<rect width="20" height="20" fill="white"/>
</clipPath>
</defs>
</svg>
