<svg width="111" height="24" viewBox="0 0 111 24" fill="none" xmlns="http://www.w3.org/2000/svg">
<path d="M25.7459 9.29032V23.9426H0.5V18.0831H19.9221V15.1523H0.5V0.5H25.7459V6.36177H6.32364V9.29277H25.7459V9.29032Z" fill="#EF424C"/>
<path d="M54.5984 0.5V10.5027L52.8297 12.2214L54.5984 13.9399V20.2762L50.8253 23.9426H28.4508V0.5H54.5984ZM48.566 8.08043V6.36193H34.4807V9.29268H47.3184L48.566 8.08043ZM48.566 17.8378V16.3646L47.3184 15.1522H34.4807V18.0831H48.3137L48.566 17.8378Z" fill="#EF424C"/>
<path d="M82.5492 0.5V23.9426H57.3033V0.5H82.5492ZM76.7272 18.0837V6.36137H63.1276V18.0837H76.7272Z" fill="#EF424C"/>
<path d="M110.5 0.5V9.5202L107.816 12.2214L110.5 14.9066V23.9426H104.676V17.3467L102.497 15.1539H93.2573L91.0784 17.3467V23.9426H85.2541V14.9066L87.9385 12.2214L85.2541 9.5202V0.5H91.0784V7.09615L93.2573 9.28877H102.497L104.676 7.09615V0.5H110.5Z" fill="#EF424C"/>
</svg>
