<?xml version="1.0" encoding="utf-8"?><svg viewBox="0 0 36 37" xmlns="http://www.w3.org/2000/svg" xmlns:xlink="http://www.w3.org/1999/xlink"><style>:root>svg{display:none}:root>svg:target{display:block}</style><svg fill="none" viewBox="0 0 16 16" id="icon-arrow-right" xmlns="http://www.w3.org/2000/svg"><path d="M3.333 8h9.334M8 3.333 12.667 8 8 12.666" stroke="#fff" stroke-width="1.5" stroke-linecap="round" stroke-linejoin="round"/></svg><svg fill="none" viewBox="0 0 20 20" id="icon-bell" xmlns="http://www.w3.org/2000/svg"><path d="M15 6.667a5 5 0 0 0-10 0c0 5.833-2.5 7.5-2.5 7.5h15S15 12.5 15 6.667ZM11.441 17.5a1.666 1.666 0 0 1-2.883 0" stroke="#2D333F" stroke-width="1.5" stroke-linecap="round" stroke-linejoin="round"/></svg><svg fill="none" viewBox="0 0 20 20" id="icon-calendar" xmlns="http://www.w3.org/2000/svg"><path d="M15.833 3.333H4.167C3.247 3.333 2.5 4.079 2.5 5v11.666c0 .92.746 1.667 1.667 1.667h11.666c.92 0 1.667-.746 1.667-1.667V5c0-.92-.746-1.667-1.667-1.667ZM13.334 1.667V5M6.667 1.667V5M2.5 8.333h15" stroke="#9BA2AF" stroke-width="1.5" stroke-linecap="round" stroke-linejoin="round"/></svg><svg fill="none" viewBox="0 0 16 11" id="icon-check" xmlns="http://www.w3.org/2000/svg"><path d="M14.667 1 5.5 10.167 1.333 6" stroke="#EF424C" stroke-width="1.5" stroke-linecap="round" stroke-linejoin="round"/></svg><svg fill="none" viewBox="0 0 36 37" id="icon-check-circle" xmlns="http://www.w3.org/2000/svg"><path d="M33 17.12v1.38a15 15 0 1 1-8.895-13.71" stroke="#42B890" stroke-width="2" stroke-linecap="round" stroke-linejoin="round"/><path d="M33 6.5 18 21.515l-4.5-4.5" stroke="#42B890" stroke-width="2" stroke-linecap="round" stroke-linejoin="round"/></svg><svg fill="none" viewBox="0 0 20 20" id="icon-close" xmlns="http://www.w3.org/2000/svg"><path d="M15 5 5 15M5 5l10 10" stroke="#2D333F" stroke-width="1.5" stroke-linecap="round" stroke-linejoin="round"/></svg><svg fill="none" viewBox="0 0 36 37" id="icon-cross-circle" xmlns="http://www.w3.org/2000/svg"><path d="M18 33.5c8.284 0 15-6.716 15-15 0-8.284-6.716-15-15-15-8.284 0-15 6.716-15 15 0 8.284 6.716 15 15 15ZM22.5 14l-9 9M13.5 14l9 9" stroke="#EE434B" stroke-width="2" stroke-linecap="round" stroke-linejoin="round"/></svg><svg fill="none" viewBox="0 0 20 20" id="icon-logout" xmlns="http://www.w3.org/2000/svg"><path d="M7.5 17.5H4.167A1.667 1.667 0 0 1 2.5 15.833V4.167A1.667 1.667 0 0 1 4.167 2.5H7.5M13.334 14.166 17.5 10l-4.166-4.167M17.5 10h-10" stroke="#9BA2AF" stroke-width="1.5" stroke-linecap="round" stroke-linejoin="round"/></svg><svg fill="none" viewBox="0 0 20 20" id="icon-settings" xmlns="http://www.w3.org/2000/svg"><g clip-path="url(#ia)" stroke="#9BA2AF" stroke-width="1.5" stroke-linecap="round" stroke-linejoin="round"><path d="M10 12.5a2.5 2.5 0 1 0 0-5 2.5 2.5 0 0 0 0 5Z"/><path d="M16.167 12.5a1.375 1.375 0 0 0 .275 1.516l.05.05a1.666 1.666 0 0 1-1.18 2.847 1.667 1.667 0 0 1-1.178-.488l-.05-.05a1.375 1.375 0 0 0-1.517-.275 1.375 1.375 0 0 0-.834 1.258v.142a1.667 1.667 0 0 1-3.333 0v-.075a1.375 1.375 0 0 0-.9-1.259 1.375 1.375 0 0 0-1.516.275l-.05.05a1.667 1.667 0 1 1-2.359-2.358l.05-.05a1.375 1.375 0 0 0 .275-1.517 1.375 1.375 0 0 0-1.258-.833H2.5a1.667 1.667 0 0 1 0-3.333h.075a1.375 1.375 0 0 0 1.258-.9 1.375 1.375 0 0 0-.275-1.517l-.05-.05a1.667 1.667 0 1 1 2.359-2.358l.05.05a1.375 1.375 0 0 0 1.517.275H7.5a1.375 1.375 0 0 0 .834-1.259V2.5a1.667 1.667 0 1 1 3.333 0v.075a1.376 1.376 0 0 0 .833 1.258 1.375 1.375 0 0 0 1.517-.275l.05-.05a1.666 1.666 0 1 1 2.358 2.358l-.05.05a1.374 1.374 0 0 0-.275 1.517V7.5a1.375 1.375 0 0 0 1.258.833h.142a1.667 1.667 0 0 1 0 3.333h-.075a1.376 1.376 0 0 0-1.258.834v0Z"/></g><defs><clipPath id="ia"><path fill="#fff" d="M0 0h20v20H0z"/></clipPath></defs></svg><svg fill="none" viewBox="0 0 24 24" id="icon-user" xmlns="http://www.w3.org/2000/svg"><path d="M20 21v-2a4 4 0 0 0-4-4H8a4 4 0 0 0-4 4v2M12 11a4 4 0 1 0 0-8 4 4 0 0 0 0 8Z" stroke="#9BA2AF" stroke-width="2" stroke-linecap="round" stroke-linejoin="round"/></svg></svg>