<?xml version="1.0" encoding="utf-8"?><svg viewBox="0 0 20 20" xmlns="http://www.w3.org/2000/svg" xmlns:xlink="http://www.w3.org/1999/xlink"><style>:root>svg{display:none}:root>svg:target{display:block}</style><svg fill="none" viewBox="0 0 16 16" id="icon-arrow-right" xmlns="http://www.w3.org/2000/svg"><path d="M3.333 8h9.334M8 3.333 12.667 8 8 12.666" stroke="#fff" stroke-width="1.5" stroke-linecap="round" stroke-linejoin="round"/></svg><svg fill="none" viewBox="0 0 20 20" id="icon-bell" xmlns="http://www.w3.org/2000/svg"><path d="M15 6.667a5 5 0 0 0-10 0c0 5.833-2.5 7.5-2.5 7.5h15S15 12.5 15 6.667ZM11.441 17.5a1.666 1.666 0 0 1-2.883 0" stroke="#2D333F" stroke-width="1.5" stroke-linecap="round" stroke-linejoin="round"/></svg><svg fill="none" viewBox="0 0 20 20" id="icon-calendar" xmlns="http://www.w3.org/2000/svg"><path d="M15.833 3.333H4.167C3.247 3.333 2.5 4.079 2.5 5v11.666c0 .92.746 1.667 1.667 1.667h11.666c.92 0 1.667-.746 1.667-1.667V5c0-.92-.746-1.667-1.667-1.667ZM13.334 1.667V5M6.667 1.667V5M2.5 8.333h15" stroke="#9BA2AF" stroke-width="1.5" stroke-linecap="round" stroke-linejoin="round"/></svg><svg fill="none" viewBox="0 0 16 11" id="icon-check" xmlns="http://www.w3.org/2000/svg"><path d="M14.667 1 5.5 10.167 1.333 6" stroke="#EF424C" stroke-width="1.5" stroke-linecap="round" stroke-linejoin="round"/></svg></svg>